<?xml version="1.0" standalone="no"?><!DOCTYPE svg PUBLIC "-//W3C//DTD SVG 1.1//EN" "http://www.w3.org/Graphics/SVG/1.1/DTD/svg11.dtd"><svg t="1782951207029" class="icon" viewBox="0 0 1024 1024" version="1.1" xmlns="http://www.w3.org/2000/svg" p-id="6843" xmlns:xlink="http://www.w3.org/1999/xlink" width="200" height="200"><path d="M669.101549 365.661074c10.305717 0 20.444635 0.782829 30.640857 1.901303-27.451212-127.82834-164.074869-222.775806-320.078922-222.775806-174.378539 0-317.222875 118.809943-317.222875 269.771143 0 87.109963 47.502897 158.642137 126.933971 214.211756l-31.706119 95.396697 110.912066-55.56655c39.658232 7.783267 71.476915 15.84999 111.076818 15.84999 9.973142 0 19.831674-0.445138 29.579689-1.173732-6.16235-21.230534-9.801227-43.414789-9.801227-66.546625C399.491065 478.137775 518.472923 365.661074 669.101549 365.661074L669.101549 365.661074 669.101549 365.661074zM498.588037 279.671631c23.972994 0 39.71656 15.743566 39.71656 39.60502 0 23.74889-15.743566 39.659255-39.71656 39.659255-23.701818 0-47.559179-15.910365-47.559179-39.659255C451.029882 295.356868 474.833007 279.671631 498.588037 279.671631L498.588037 279.671631 498.588037 279.671631zM276.591991 358.936929c-23.809265 0-47.78226-15.910365-47.78226-39.659255 0-23.867594 23.972994-39.60502 47.78226-39.60502 23.808242 0 39.60502 15.684214 39.60502 39.60502C316.198034 343.026564 300.396139 358.936929 276.591991 358.936929L276.591991 358.936929 276.591991 358.936929zM958.70232 612.917434c0-126.823454-126.933971-230.173287-269.493827-230.173287-150.960177 0-269.777283 103.404068-269.777283 230.173287 0 127.157052 118.874411 230.167147 269.777283 230.167147 31.594579 0 63.467497-7.892761 95.173616-15.844873l86.99126 47.723931-23.860431-79.31851C911.203516 747.802494 958.70232 684.449607 958.70232 612.917434L958.70232 612.917434 958.70232 612.917434zM601.713766 573.199851c-15.738449 0-31.706119-15.684214-31.706119-31.706119 0-15.791661 15.963577-31.702026 31.706119-31.702026 24.086581 0 39.712467 15.911388 39.712467 31.702026C641.42521 557.515636 625.800347 573.199851 601.713766 573.199851L601.713766 573.199851 601.713766 573.199851zM776.203846 573.199851c-15.629979 0-31.534204-15.684214-31.534204-31.706119 0-15.791661 15.851013-31.702026 31.534204-31.702026 23.862477 0 39.714514 15.911388 39.714514 31.702026C815.918359 557.515636 800.072463 573.199851 776.203846 573.199851L776.203846 573.199851 776.203846 573.199851zM776.203846 573.199851" fill="#272636" p-id="6844"></path></svg>
