<?xml version="1.0" encoding="UTF-8"?>
<svg width="547px" height="278px" viewBox="0 0 547 278" version="1.1" xmlns="http://www.w3.org/2000/svg" xmlns:xlink="http://www.w3.org/1999/xlink">
    <title>编组</title>
    <g id="页面-1" stroke="none" stroke-width="1" fill="none" fill-rule="evenodd" fill-opacity="0.8">
        <g id="编组" transform="translate(0.2922, 0.5914)" fill="#000000" fill-rule="nonzero">
            <path d="M65.4633513,260.743523 L0,195.879519 L65.0023417,131.015514 L0,65.6914809 L65.4633513,0.367448026 L163.197367,97.8934688 C181.071794,115.8363 181.071794,144.814643 163.197367,162.757474 L65.4633513,260.743523 Z" id="-path"></path>
            <path d="M208.697146,204.376075 L337,204.376075 C339.761424,204.376075 342,206.614651 342,209.376075 L342,272.376075 C342,275.137499 339.761424,277.376075 337,277.376075 L208.697146,277.376075 C205.935723,277.376075 203.697146,275.137499 203.697146,272.376075 L203.697146,209.376075 C203.697146,206.614651 205.935723,204.376075 208.697146,204.376075 Z" id="-path"></path>
            <path d="M434.860164,260.376075 L369.396813,195.512071 L434.399154,130.648066 L369.396813,65.3240328 L434.860164,-2.27373675e-13 L532.59418,97.5260208 C550.468607,115.468852 550.468607,144.447195 532.59418,162.390026 L434.860164,260.376075 Z" id="-path备份-4" transform="translate(457.6984, 130.188) rotate(180) translate(-457.6984, -130.188)"></path>
        </g>
    </g>
</svg>