<?xml version="1.0" standalone="no"?><!DOCTYPE svg PUBLIC "-//W3C//DTD SVG 1.1//EN" "http://www.w3.org/Graphics/SVG/1.1/DTD/svg11.dtd"><svg t="1784085850159" class="icon" viewBox="0 0 1741 1024" version="1.1" xmlns="http://www.w3.org/2000/svg" p-id="10270" xmlns:xlink="http://www.w3.org/1999/xlink" width="340.0390625" height="200"><path d="M1626.367006 947.278622c-15.948421 12.902094-30.463276 5.734264-23.935431-11.468527 22.476266-56.651455 73.982243-183.57324 50.046811-214.394909-24.652215-30.847267-161.020176-14.33566-221.972328-7.167829-18.866752 2.12475-21.759483-13.644476-4.351897-25.829787 108.797416-76.004595 287.276377-53.758723 308.319078-28.671319 20.300318 26.52097-6.553444 203.643163-108.106233 287.532371z m-53.681925-136.239964C1382.609595 950.145754 1106.21296 1024 868.266611 1024 535.295319 1024 234.937653 902.095695 7.871045 699.169315c-18.12437-15.769225-2.150349-37.989498 19.609135-25.087404 245.190977 141.257445 547.724592 225.863436 860.395565 225.863435 225.607442-1.433566 448.322152-45.87411 656.522008-132.656049 33.356008-13.618877 60.20977 20.812306 28.287328 43.749361z" fill="#EC912D" p-id="10271"></path><path d="M1632.178068 78.921646c0.716783 21.503489-4.351897 27.263352-14.514855 28.671319-10.162959 1.459165-8.703793-8.601396-53.681925-21.50349-45.694915-12.902094-132.758447-17.202791-165.397672 14.33566-31.922442 31.56405-21.0427 81.047675 32.639225 102.551164 88.497098 37.272715 221.255545 38.73188 229.959338 170.645547-2.892731 145.583742-158.127444 159.919402-204.564741 159.919402s-109.565398-14.33566-143.638189-28.671319c-34.09839-13.644476-32.639225-32.280833-32.639225-32.280833v-42.315795c0-18.636357 36.274338 0 36.274339 0s48.587646 23.679438 132.732847 25.087404c73.291059 1.459165 111.741346-17.919574 114.634078-70.961514 2.892731-53.06754-67.479997-70.270331-108.080633-81.764459-40.626235-10.751745-169.032785-36.555932-169.032786-152.725972S1398.583616 0.792301 1470.41551 0.792301c71.806295 0 114.608478 14.33566 140.003075 28.671319 25.368997 14.33566 21.759483 28.671319 21.759483 28.671319v20.812306zM1079.384797 515.621674c-10.162959 2.150349-25.394597 3.583915-25.394597 3.583915h-36.274338s-13.772473-0.716783-25.394597-7.16783c-11.596525-6.476646-14.514855-28.671319-18.12437-42.315795-3.635114-13.618877-86.346749-340.599911-86.346749-340.599911L801.528996 491.225453s-5.06868 15.769225-14.514855 21.50349c-9.420576 5.04308-32.639225 7.16783-32.639225 7.167829H723.194856s-16.690804 1.459165-29.02971-10.751744c-12.338907-12.185311-21.759483-45.87411-21.759483-45.874111L543.999112 43.082497s-11.596525-28.671319 10.879742-28.671319h60.926553s25.394597-8.626995 36.274338 35.839149c10.905341 44.440545 93.591377 365.687315 93.591378 365.687314l89.956263-376.439059s5.06868-17.228391 10.879742-21.503489c5.811062-4.326297 33.381607-3.583915 46.437297-3.583915h29.004111s17.407587-2.892731 25.394597 21.503489c7.270227 24.370621 93.591377 383.606889 93.591377 383.606889L1141.744916 43.082497s2.892731-9.343778 7.244628-17.919575c4.351897-8.626995 8.703793-10.751745 21.759483-10.751744h57.342638s15.206039-0.742382 14.489256 14.335659c0 6.425447-143.638189 461.761833-143.638189 461.761833s-10.162959 22.937055-19.583534 25.087405z m-614.462207 3.583915s-15.948421 7.16783-32.639224-14.33566c-14.514855-17.919574-32.639225-53.06754-32.639225-53.067539s-53.681925 76.721378-161.788158 78.154944c-108.080633 1.433566-163.938506-55.934672-165.397672-149.142058-0.716783-93.949769 83.428419-162.044151 176.277414-159.919402 92.874594 2.150349 147.273302 17.919574 147.273302 17.919574v-53.758723s-3.635114-72.446279-46.437297-92.516203c-42.802183-20.069923-101.552788-15.769225-150.882817-2.867132-49.330028 12.185311-57.317039 17.228391-57.317038 17.228391s-6.527845 5.017481-18.12437 7.16783c-11.622124 2.150349-14.514855-5.017481-14.514855-10.751745V60.976472s-5.811062-12.185311 18.124369-25.087404C150.81805 22.961375 212.486986 0.741102 285.010063 0.024319c72.548677-0.716783 132.758447 14.33566 165.397672 56.651455 32.664824 42.290196 39.16707 76.721378 39.16707 152.725973v145.558143s-7.244628 68.119982 18.175568 96.100117c0 0 14.489256 15.769225 7.244628 28.671319-7.270227 12.902094-50.072411 39.423064-50.072411 39.423064z m-68.19678-216.570857s-71.806295-20.069923-129.123333-14.335659c-57.317039 5.734264-98.660057 30.847267-94.30816 99.684032 5.06868 68.094383 77.617357 78.154944 125.513819 63.819285 75.441408-22.245872 98.660057-63.819284 97.917674-149.167658z" fill="#232F3F" p-id="10272"></path></svg>