<?xml version="1.0" standalone="no"?><!DOCTYPE svg PUBLIC "-//W3C//DTD SVG 1.1//EN" "http://www.w3.org/Graphics/SVG/1.1/DTD/svg11.dtd"><svg t="1784085681371" class="icon" viewBox="0 0 1024 1024" version="1.1" xmlns="http://www.w3.org/2000/svg" p-id="5126" xmlns:xlink="http://www.w3.org/1999/xlink" width="200" height="200"><path d="M886.869333 129.664c0-12.629333 56.192 50.474667 73.216 80.768 13.226667 25.258667 18.346667 43.52 20.224 81.408 2.517333 43.562667 1.28 51.157333-13.226666 75.776a123.392 123.392 0 0 1-43.562667 42.922667l-27.178667 15.786666-261.930666 3.114667-261.888 3.157333-1.92 148.352c-0.64 81.408 0 154.624 1.92 162.816 3.114667 13.226667 6.912 14.506667 33.408 12.629334l29.653333-1.92 3.797333-46.037334c2.56-38.485333 6.314667-48.64 20.224-63.146666 14.506667-14.506667 23.338667-17.066667 68.778667-20.181334l52.352-3.157333 1.92-37.888c1.92-44.16 9.472-62.464 30.933333-71.936 18.304-8.192 254.122667-9.472 254.378667-1.28 0 10.752-58.709333 58.709333-90.24 73.856-18.346667 8.234667-46.08 17.066667-61.866667 18.944l-29.696 3.797333-2.517333 43.52c-1.877333 34.730667-5.077333 46.08-17.706667 59.306667-13.866667 14.506667-18.901333 15.829333-70.656 15.829333H539.733333v50.517334c0 46.08-1.877333 52.352-15.786666 66.218666-14.506667 15.146667-17.664 15.786667-106.666667 15.786667H325.802667l-22.741334-19.541333c-11.989333-10.752-25.216-29.696-29.013333-42.325334-4.437333-15.146667-5.674667-87.722667-4.437333-207.616l1.877333-183.68 18.944-27.136c10.709333-14.506667 30.293333-32.853333 44.202667-39.765333 23.978667-12.629333 35.968-13.269333 273.92-15.146667 273.237333-2.56 265.728-1.28 290.986666-42.24 15.744-25.898667 15.744-65.066667 0-110.506666a358.186667 358.186667 0 0 1-12.672-41.002667z m-747.264-1.28c1.237333 1.28-3.157333 18.346667-10.112 37.888-13.866667 40.405333-16.384 83.925333-5.034666 108.544 9.472 21.461333 41.045333 40.405333 77.013333 44.8 15.786667 2.56 29.013333 5.077333 29.013333 6.314667 0 1.28-6.954667 11.989333-15.146666 24.618666-8.832 12.629333-17.706667 35.370667-20.224 51.157334-3.157333 23.936-5.674667 27.733333-19.541334 27.733333-59.306667 0-114.901333-37.845333-128.170666-88.32C32.256 285.568 53.76 216.746667 102.4 163.712c19.541333-20.821333 35.968-36.565333 37.248-35.328z" p-id="5127"></path></svg>