<?xml version="1.0" standalone="no"?><!DOCTYPE svg PUBLIC "-//W3C//DTD SVG 1.1//EN" "http://www.w3.org/Graphics/SVG/1.1/DTD/svg11.dtd"><svg t="1784085340296" class="icon" viewBox="0 0 1024 1024" version="1.1" xmlns="http://www.w3.org/2000/svg" p-id="13043" xmlns:xlink="http://www.w3.org/1999/xlink" width="200" height="200"><path d="M235.946667 250.794667s19.626667 24.490667 51.541333 29.44c10.026667 1.493333 31.914667 12.202667 56.448-4.949334 8.96-6.272 9.813333-12.245333 9.813333-12.245333s-9.813333 0-14.762666 2.432c-4.864 2.474667-17.152-2.432-24.490667-4.864-7.381333-2.474667-22.101333 2.432-24.533333 12.245333-0.597333 2.346667-12.288 2.432-12.288-14.72 0-7.338667 7.381333-12.245333 24.533333-12.245333 7.765333 0 38.997333-29.44 51.498667-29.44 7.381333 0 17.194667-4.864 49.066666 7.381333 6.869333 2.645333 31.914667-9.813333 44.16-14.72 12.288-4.906667 63.786667-46.549333 71.168-56.362666 7.338667-9.813333 17.152-26.965333 22.058667-24.490667 4.906667 2.432 7.381333 9.813333-4.906667 29.397333-5.802667 9.301333-24.533333 41.642667-88.32 95.573334-6.741333 5.717333-14.72 9.813333-14.72 9.813333s9.813333 4.906667 34.346667 29.44c9.813333 9.813333 22.101333 31.829333 29.44 61.226667 3.029333 12.16 0 51.498667 0 51.498666s-14.72-19.626667-41.685333-26.965333c-9.813333-2.645333-24.533333-2.474667-44.16-4.906667-4.864-0.597333 36.778667 7.338667 49.066666 19.626667 8.661333 8.661333 46.592 22.058667 34.346667 90.666667-2.730667 15.274667-17.194667 36.778667-51.541333 46.549333-7.424 2.133333-46.592 7.381333-58.88-36.736-1.962667-7.082667 0-39.253333 29.44-41.685333 10.112-0.853333 22.101333 0 22.101333 0s-7.381333-2.432-14.72 7.381333c-7.381333 9.813333-19.626667 24.490667 2.432 39.210667 2.048 1.322667 27.008 4.906667 29.44-29.44a38.186667 38.186667 0 0 0-19.626667-34.304c-6.741333-3.84-22.058667-12.245333-49.066666 2.474666-9.088 4.949333-26.965333 22.058667-22.058667 66.133334 1.365333 12.458667 14.72 36.778667 49.066667 44.16 9.898667 2.090667 56.405333 17.152 122.666666-41.685334 5.12-4.608 63.744-51.456 122.624-58.837333 12.416-1.536 71.168 4.906667 85.888 12.288 14.72 7.338667 36.778667 17.152 53.973334 34.304 8.661333 8.661333 9.813333 4.906667 9.813333 4.906667s-7.381333-29.44 22.058667-63.744c11.264-13.141333 58.88-41.642667 71.125333-44.117334 12.288-2.432 36.821333-26.965333 39.253333-34.304 2.474667-7.338667 4.906667-19.626667 4.906667-19.626666s14.72 26.965333 2.474667 58.837333c-4.48 11.648-4.906667 17.152-22.101334 31.872-10.837333 9.301333-53.333333 32-56.405333 44.117333-4.906667 19.626667-9.813333 49.024 17.152 58.794667 8.32 3.029333 31.914667 12.288 46.634667-12.245333 4.010667-6.613333 4.906667-24.490667-7.381334-29.44-2.261333-0.853333-14.72-9.770667-26.965333 2.474666-5.504 5.504 2.432 19.626667 9.813333 19.626667 4.906667 0 14.72-2.474667 14.72-7.338667 0-4.906667 4.906667 0-2.474666 9.813334-3.285333 4.352-17.152 17.109333-39.253334-2.474667-5.461333-4.864-7.338667-36.778667 12.288-44.117333 10.24-3.84 36.778667-12.245333 46.592 2.432 0 0 31.914667 17.152 19.626667 61.269333-2.944 10.581333-9.813333 26.965333-51.498667 44.117333-6.826667 2.816-24.533333 4.906667-51.541333-4.864-2.304-0.853333 11.477333 43.264 9.813333 56.32-2.432 19.626667-2.432 53.973333-36.778666 85.802667-7.637333 7.082667-17.152 17.152-39.253334 26.965333-2.218667 1.024 22.101333 41.685333 39.253334 66.176 7.04 10.069333 14.72 14.72 14.72 14.72s-19.626667 12.245333-24.533334 17.152c-4.906667 4.906667-34.346667 29.44-36.778666 53.930667H697.173333s39.253333-19.626667 58.88-46.592c4.053333-5.589333 22.058667-22.058667 22.058667-22.058667s-66.218667-29.397333-78.506667-44.117333c-5.674667-6.784-51.498667-34.304-58.88-95.573333-0.554667-4.864 4.906667-56.362667 46.634667-63.744 19.456-3.413333 41.685333-9.813333 63.786667 19.626666 0 0 12.245333 26.965333-4.906667 46.549334-3.626667 4.138667-4.906667 9.813333-27.008 7.381333-3.413333-0.426667 12.288-4.906667 14.72-17.152 1.066667-5.376 0-26.965333-22.058667-24.533333-7.68 0.853333-31.914667 7.381333-24.533333 49.066666 1.792 10.24 26.965333 29.354667 53.973333 19.584 11.733333-4.266667 51.498667-14.72 41.685334-68.650666a83.541333 83.541333 0 0 0-41.685334-58.794667c-10.88-6.229333-41.728-14.72-83.413333 9.813333-11.946667 6.997333-49.066667 68.608-78.506667 93.098667-7.978667 6.656-44.16 36.778667-88.32 46.592-7.594667 1.706667-85.845333 19.626667-125.098666 2.432-2.261333-0.981333-24.533333 49.024-24.533334 49.024s-53.973333 24.490667-80.938666 63.701333c-6.954667 10.112-17.194667 22.101333-19.626667 34.346667-0.682667 3.413333-112.853333 0-112.853333 0v-4.906667s12.245333 4.906667 36.778666-7.381333c4.906667-2.432 61.354667-31.829333 83.413334-71.04 8.704-15.445333 22.101333-39.253333 24.533333-83.328 0.554667-9.813333-2.432-29.44-7.338667-34.346667-4.906667-4.906667-42.325333-47.445333-46.634666-53.930666-4.906667-7.338667-41.685333-56.32-29.44-142.122667 2.645333-18.474667 21.717333-58.453333 29.44-66.176 9.813333-9.813333 34.346667-29.44 34.346666-29.44s-22.058667 0-29.44 4.906667c-7.338667 4.906667-19.626667 17.152-26.965333 34.346666-2.133333 5.034667-2.474667 4.864-2.474667 4.864l-7.338666-29.397333c-1.194667-4.736-4.906667-9.813333-7.381334-9.813333-2.432 0-12.245333-22.058667-9.813333-29.397334 2.474667-7.338667 12.288-9.813333 12.288-9.813333s7.338667-12.245333 9.813333-12.245333c2.432 0 2.432 7.338667 2.432 9.813333 0 2.432 4.906667 9.813333 12.288 9.813333h63.786667c5.461333 0 9.813333-4.906667 9.813333-4.906666s-32.128-3.114667-39.253333-4.906667c-9.813333-2.474667-34.346667-14.72-36.821333-17.152a35.157333 35.157333 0 0 1-4.906667-7.381333s39.253333 9.813333 51.541333 9.813333c12.245333 0 42.709333-3.456 46.592-7.338667 2.474667-2.474667-2.432-14.72-12.245333-19.626666 0 0-27.008-17.152-63.786667-19.626667 0 0-29.44 0-36.821333 12.288-3.968 6.656 7.381333 12.245333 9.813333 14.72 2.474667 2.432-12.245333 0-17.152-2.474667-4.906667-2.432-4.906667-9.813333-4.906666-9.813333s-9.813333 2.474667-17.194667 0c-7.338667-2.432-17.152-17.152-7.338667-41.642667 3.285333-8.234667 17.152-12.245333 29.44-12.245333h12.245334s-4.906667-19.626667 4.906666-22.058667c9.813333-2.474667 22.101333-4.906667 41.728 12.245334z" fill="#D1351C" p-id="13044"></path><path d="M174.634667 557.141333s0 58.837333 36.821333 93.141334c1.792 1.706667-44.074667-1.962667-53.973333 0-12.288 2.474667-34.346667 4.906667-24.533334 31.872 3.754667 10.282667 31.872 44.117333 39.253334 46.549333 7.338667 2.474667 7.338667 2.474667 14.72-4.906667 2.432-2.432 4.906667 2.474667 4.906666 2.474667s4.906667 7.338667-17.194666 22.058667c-7.338667 4.906667-34.346667 31.872-34.346667 31.872s-4.906667 9.813333-22.058667 4.906666c-4.693333-1.365333 7.338667 0 9.813334-4.906666 2.432-4.906667 12.245333-24.533333-17.152-73.557334-7.381333-12.245333-41.728-75.946667-46.634667-75.946666-4.906667 0 61.354667-17.152 61.354667-17.152l24.490666-4.906667s0-34.346667 24.533334-51.498667z m453.845333 144.64s9.813333 51.456 39.253333 71.04c5.76 3.84-14.72 0-31.914666 2.474667-5.418667 0.768-34.304 31.872-39.253334 34.304-4.864 2.474667-14.72 12.245333-14.72 17.152 0 4.906667 4.906667 9.813333 12.288 9.813333 4.906667 0 0 7.338667 0 7.338667h-105.472s-21.589333-5.930667-17.194666-14.677333c2.474667-4.906667 4.906667 9.813333 22.101333 0 6.741333-3.84 58.88-24.533333 76.032-41.685334 9.813333-9.813333 39.253333-36.778667 58.88-85.76z m-199.253333-485.12s1.408-40.661333 22.613333-56.576c9.813333-7.338667 17.194667-7.338667 19.626667-7.338666 2.474667 0-7.338667 14.72-12.245334 26.965333-4.906667 12.245333-6.101333 26.026667-6.101333 26.026667l-23.893333 10.965333z" fill="#D1351C" p-id="13045"></path></svg>